<?xml version="1.0" encoding="UTF-8"?>
<svg id="Layer_1" xmlns="http://www.w3.org/2000/svg" version="1.1" xmlns:xlink="http://www.w3.org/1999/xlink" viewBox="0 0 1000 1000.95">
  <!-- Generator: Adobe Illustrator 30.1.0, SVG Export Plug-In . SVG Version: 2.1.1 Build 136)  -->
  <defs>
    <style>
      .st0 {
        fill: #2671be;
      }

      .st1 {
        fill: #fdfdfe;
        filter: url(#drop-shadow-1);
      }

      .st1, .st2 {
        fill-rule: evenodd;
      }

      .st2 {
        fill: #fcfdfd;
        filter: url(#drop-shadow-2);
      }

      .st3 {
        fill: #e0eaf5;
      }
    </style>
    <filter id="drop-shadow-1" x="238.02" y="143" width="504" height="641" filterUnits="userSpaceOnUse">
      <feOffset dx="0" dy="0"/>
      <feGaussianBlur result="blur" stdDeviation="15"/>
      <feFlood flood-color="#000" flood-opacity="1"/>
      <feComposite in2="blur" operator="in"/>
      <feComposite in="SourceGraphic"/>
    </filter>
    <filter id="drop-shadow-2" x="440.02" y="605" width="346" height="170" filterUnits="userSpaceOnUse">
      <feOffset dx="0" dy="0"/>
      <feGaussianBlur result="blur1" stdDeviation="15"/>
      <feFlood flood-color="#000" flood-opacity="1"/>
      <feComposite in2="blur1" operator="in"/>
      <feComposite in="SourceGraphic"/>
    </filter>
  </defs>
  <g>
    <circle class="st0" cx="500" cy="500.48" r="471.75"/>
    <path class="st3" d="M29.25,520.17c10.44,250.94,217.27,452.05,470.75,452.05s460.31-201.11,470.75-452.05c.56-1.56,1-3.18,1-4.95,0-1.06-.38-1.98-.59-2.95.09-3.95.59-7.81.59-11.79,0-260.11-211.64-471.75-471.75-471.75S28.25,240.37,28.25,500.48c0,3.98.5,7.84.59,11.79-.21.97-.59,1.89-.59,2.95,0,1.77.44,3.39,1,4.95ZM763.03,699.23c-38.89-16.28-80.64-28.87-124.28-37.47,4.66-42.84,7.4-87.33,8.26-131.8h146.83c-2.68,60.59-13.44,117.76-30.81,169.27ZM823.3,529.96h117.47c-5.48,82.73-33.55,159.27-78.49,223.43-22.38-15.72-46.5-30.02-72.44-42.46,18.99-55.11,30.69-116.23,33.46-180.98ZM393.53,685.82c34.73-5.43,70.38-8.43,106.5-8.43s71.71,3.01,106.44,8.43c-20.49,157.3-65.19,256.93-106.47,256.93s-85.98-99.63-106.47-256.93ZM438.32,932.84c-81.11-26.01-149.72-102.34-191.12-205.92,36.74-15.48,76.25-27.57,117.61-35.88,13.56,103.05,38.27,192.89,73.5,241.8ZM390.17,344.48c35.85,5.54,72.65,8.58,109.83,8.58s73.98-3.04,109.83-8.58c5.1,47.76,8.11,99.89,8.11,156h-235.88c0-56.11,3.01-108.24,8.11-156ZM617.5,529.96c-.83,44.96-3.48,87.3-7.67,126.52-35.85-5.54-72.62-8.58-109.8-8.58s-74.01,3.07-109.86,8.58c-4.16-39.21-6.84-81.55-7.67-126.52h234.99ZM635.19,691.03c41.4,8.31,80.88,20.4,117.61,35.88-41.4,103.58-110.01,179.91-191.12,205.95,35.23-48.94,59.94-138.78,73.5-241.83ZM647.42,500.48c0-54.13-2.98-108.97-8.67-161.31,43.64-8.61,85.39-21.23,124.28-37.47,20.17,59.85,31.81,127.25,31.81,198.78h-147.42ZM635.19,309.92c-13.56-103.08-38.27-192.89-73.48-241.8,81.11,26.01,149.72,102.34,191.12,205.92-36.77,15.48-76.28,27.57-117.64,35.88ZM606.47,315.14c-34.73,5.43-70.38,8.43-106.47,8.43s-71.74-3.01-106.47-8.43c20.49-157.3,65.19-256.93,106.47-256.93s85.98,99.63,106.47,256.93ZM364.81,309.92c-41.37-8.29-80.88-20.4-117.61-35.88,41.4-103.58,110.01-179.91,191.12-205.92-35.23,48.91-59.94,138.75-73.5,241.8ZM361.25,339.17c-5.66,52.33-8.67,107.18-8.67,161.31h-147.42c0-71.53,11.65-138.93,31.81-198.78,38.89,16.28,80.64,28.87,124.28,37.47ZM352.99,529.96c.86,44.46,3.6,88.95,8.26,131.82-43.64,8.64-85.39,21.23-124.28,37.47-17.37-51.51-28.13-108.71-30.81-169.3h146.83ZM210.17,710.97c-25.95,12.44-50.03,26.74-72.44,42.46-44.93-64.16-73-140.7-78.49-223.46h117.47c2.77,64.75,14.48,125.9,33.46,181ZM155.42,777.04c20.2-14.12,41.78-27.16,65.07-38.48,29.6,73.27,72.18,134.09,123.42,175.2-74.48-28.22-139.43-75.69-188.49-136.72ZM656.09,913.76c51.24-41.1,93.82-101.96,123.42-175.23,23.29,11.32,44.88,24.35,65.07,38.48-49.06,61.03-114.02,108.53-188.49,136.75ZM824.33,500.48c0-75.69-12.62-147.04-34.5-210.49,25.95-12.44,50.06-26.74,72.44-42.46,50.24,71.76,79.99,158.89,79.99,252.95h-117.94ZM844.61,223.94c-20.2,14.12-41.78,27.16-65.07,38.48-29.6-73.27-72.21-134.12-123.42-175.23,74.45,28.22,139.4,75.69,188.49,136.75ZM343.91,87.19c-51.24,41.1-93.82,101.96-123.45,175.23-23.29-11.32-44.88-24.35-65.07-38.51,49.09-61.03,114.05-108.5,188.52-136.72ZM137.73,247.53c22.38,15.72,46.5,30.02,72.44,42.46-21.88,63.45-34.5,134.8-34.5,210.49H57.73c0-94.06,29.75-181.18,79.99-252.95Z"/>
  </g>
  <path class="st1" d="M573.52,455.46c-7.06-8.29-14.82-17.83-23.03-26.95-46.58-51.74-92.74-103.86-140.15-154.83-21.69-23.32-28.61-45.97-2.55-69,25.75-22.76,51.04-20.74,74.66,5.44,65.77,72.89,131.47,145.86,198.33,217.74,24.96,26.85,19.15,45.1-8.35,65-105.53,76.38-210.47,153.6-315.29,230.96-23.56,17.39-46.02,21.75-65.06-3.94-21-28.34-1.57-45.2,20.21-61.06,77.9-56.74,155.64-113.69,233.05-171.08,10.78-7.99,26.26-12.66,28.19-32.28h0Z"/>
  <path class="st2" d="M606.89,729.57c-28.37,0-56.78.98-85.08-.31-22.58-1.02-36.17-13.64-35.89-37.43.27-22.49,11.61-39.4,34.17-40.01,62-1.66,124.1-1.3,186.12-.09,19.71.38,34.26,13.23,34.14,33.77-.14,23.56-12.54,41.82-37.77,43.34-31.79,1.92-63.78.48-95.69.48v.26Z"/>
</svg>